<svg width="160" height="38" viewBox="0 0 160 38" fill="none" xmlns="http://www.w3.org/2000/svg">
<path d="M41 15.8655V11.0803H44.7005V3.27517H50.7192V11.0803H54.9939V15.8655H50.7192V31.4119H44.7005V15.8655H41Z" fill="#343554"/>
<path d="M54.5711 21.2248C54.5711 19.651 54.8618 18.1907 55.4431 16.8438C56.0386 15.4826 56.8255 14.3626 57.8038 13.4835C58.7821 12.5903 59.888 11.8955 61.1215 11.3993C62.355 10.8889 63.6239 10.6337 64.9283 10.6337C65.4813 10.6337 66.0697 10.6975 66.6935 10.8251C67.3315 10.9385 68.0617 11.215 68.8841 11.6545C69.7206 12.0799 70.3799 12.6399 70.8619 13.3346V11.0803H76.8593V31.4119H70.8619V29.0938C70.2806 29.9728 69.3874 30.6463 68.1822 31.1142C66.9913 31.5679 65.9066 31.7947 64.9283 31.7947C63.1702 31.7947 61.5114 31.3764 59.9518 30.5399C58.3922 29.7034 57.1019 28.4699 56.0811 26.8394C55.0745 25.1947 54.5711 23.3232 54.5711 21.2248ZM62.3763 17.7582C61.3554 18.6657 60.845 19.8212 60.845 21.2248C60.845 22.6285 61.3554 23.784 62.3763 24.6914C63.4113 25.5988 64.5951 26.0525 65.9279 26.0525C67.2465 26.0525 68.3949 25.613 69.3732 24.7339C70.3657 23.8407 70.8619 22.671 70.8619 21.2248C70.8619 19.7645 70.3657 18.5948 69.3732 17.7157C68.3949 16.8225 67.2465 16.3759 65.9279 16.3759C64.5951 16.3759 63.4113 16.8367 62.3763 17.7582Z" fill="#343554"/>
<path d="M78.6271 24.8403H84.2842C84.3125 25.4499 84.6174 25.9958 85.1987 26.4779C85.78 26.9457 86.4747 27.1797 87.2829 27.1797C87.9776 27.1513 88.566 26.9883 89.0481 26.6905C89.5301 26.3786 89.7712 25.9745 89.7712 25.4783C89.7712 25.0388 89.6223 24.6914 89.3246 24.4362C89.0268 24.1668 88.5093 23.94 87.772 23.7556L85.1136 23.0538C83.951 22.7419 82.9585 22.352 82.1362 21.8841C81.3138 21.4162 80.7042 20.9767 80.3072 20.5655C79.9102 20.1402 79.6054 19.644 79.3927 19.0768C79.18 18.4955 79.0595 18.0347 79.0311 17.6944C79.0028 17.3542 78.9957 16.9288 79.0099 16.4184C79.0382 14.9013 79.8393 13.5615 81.4131 12.3989C82.9869 11.2221 84.83 10.6337 86.9426 10.6337C87.7791 10.6337 88.5802 10.7117 89.3458 10.8676C90.1256 11.0094 90.8771 11.2504 91.6002 11.5907C92.3374 11.931 92.9684 12.3563 93.493 12.8668C94.0317 13.3772 94.4642 14.0223 94.7903 14.8021C95.1164 15.5677 95.2865 16.4326 95.3007 17.3967H89.601C89.5727 16.2057 88.8 15.6102 87.2829 15.6102C86.6307 15.6102 86.1061 15.752 85.7091 16.0356C85.3263 16.305 85.142 16.6665 85.1561 17.1202C85.2129 17.8575 85.8083 18.3679 86.9426 18.6515L90.3879 19.566C91.3237 19.8212 92.1389 20.1615 92.8337 20.5868C93.5426 20.998 94.0814 21.4162 94.45 21.8416C94.8328 22.2669 95.1376 22.7277 95.3645 23.224C95.6055 23.7202 95.7544 24.1455 95.8111 24.5C95.882 24.8403 95.9174 25.1664 95.9174 25.4783C95.9174 26.5133 95.6622 27.4491 95.1518 28.2856C94.6414 29.1221 93.9608 29.7956 93.1101 30.306C92.2594 30.8022 91.3166 31.178 90.2816 31.4332C89.2607 31.7025 88.2045 31.8372 87.1127 31.8372C86.2762 31.8372 85.4539 31.738 84.6457 31.5395C83.8376 31.3552 83.0719 31.0716 82.3489 30.6888C81.6258 30.2918 80.9877 29.8239 80.4348 29.2852C79.8818 28.7322 79.4423 28.0729 79.1162 27.3073C78.8043 26.5417 78.6412 25.7193 78.6271 24.8403Z" fill="#343554"/>
<path d="M97.5576 31.4119V0H103.576V16.6523L108.404 11.0803H116.124L107.66 20.0339L117.804 31.4119H110.361L103.576 23.3516V31.4119H97.5576Z" fill="#343554"/>
<path d="M118.189 6.0612C117.452 5.36646 117.084 4.52286 117.084 3.53038C117.084 2.53791 117.452 1.70139 118.189 1.02083C118.941 0.340278 119.834 0 120.869 0C121.89 0 122.762 0.340278 123.485 1.02083C124.208 1.70139 124.57 2.53791 124.57 3.53038C124.57 4.52286 124.208 5.36646 123.485 6.0612C122.762 6.75593 121.89 7.1033 120.869 7.1033C119.834 7.1033 118.941 6.75593 118.189 6.0612ZM117.87 31.4119V11.0803H123.889V31.4119H117.87Z" fill="#343554"/>
<path d="M123.889 15.8655V11.0803H128.741V3.27517H134.759V11.0803H139.034V15.8655H134.759V31.4119H128.741V15.8655H123.889Z" fill="#343554"/>
<path d="M138.611 21.1823C138.611 19.1123 139.086 17.2691 140.036 15.6528C141 14.0223 142.276 12.7817 143.864 11.931C145.466 11.0661 147.225 10.6337 149.139 10.6337C151.053 10.6337 152.811 11.0661 154.413 11.931C156.015 12.7817 157.298 14.0223 158.262 15.6528C159.241 17.2691 159.73 19.1123 159.73 21.1823C159.73 23.2523 159.241 25.1026 158.262 26.7331C157.298 28.3636 156.015 29.6113 154.413 30.4761C152.811 31.3268 151.053 31.7522 149.139 31.7522C147.225 31.7522 145.466 31.3268 143.864 30.4761C142.276 29.6113 141 28.3707 140.036 26.7543C139.086 25.1238 138.611 23.2665 138.611 21.1823ZM144.566 21.1823C144.566 22.5576 145.006 23.6777 145.885 24.5425C146.778 25.4074 147.863 25.8398 149.139 25.8398C150.443 25.8398 151.535 25.4145 152.414 24.5638C153.307 23.6989 153.754 22.5718 153.754 21.1823C153.754 19.8354 153.307 18.7295 152.414 17.8646C151.521 16.9997 150.429 16.5673 149.139 16.5673C147.863 16.5673 146.778 16.9997 145.885 17.8646C145.006 18.7295 144.566 19.8354 144.566 21.1823Z" fill="#343554"/>
<path fill-rule="evenodd" clip-rule="evenodd" d="M21.8571 1L0 8.46219V29.3563L7.87541 26.6676V13.7755L21.8571 9.002V1Z" fill="#007EFF"/>
<path fill-rule="evenodd" clip-rule="evenodd" d="M11.1426 15.7358L32.9997 8.27364V29.1678L11.1426 36.63V15.7358Z" fill="#56AAFF"/>
</svg>
